<?xml version="1.0" standalone="no"?>
<!DOCTYPE svg PUBLIC "-//W3C//DTD SVG 20010904//EN"
 "http://www.w3.org/TR/2001/REC-SVG-20010904/DTD/svg10.dtd">
<svg version="1.0" xmlns="http://www.w3.org/2000/svg"
 width="768.000000pt" height="768.000000pt" viewBox="0 0 768.000000 768.000000"
 preserveAspectRatio="xMidYMid meet">
<metadata>
Created by potrace 1.11, written by Peter Selinger 2001-2013
</metadata>
<g transform="translate(0.000000,768.000000) scale(0.100000,-0.100000)"
fill="#000000" stroke="none">
<path d="M0 3886 l0 -2915 793 0 792 0 0 751 0 751 27 36 c45 58 57 74 81 105
63 83 239 313 250 326 7 8 46 59 87 113 41 53 77 97 80 97 5 -1 52 -75 95
-155 15 -27 38 -64 51 -82 13 -17 24 -34 24 -36 0 -3 62 -108 138 -234 76
-126 141 -235 145 -243 4 -8 25 -44 48 -80 23 -36 52 -85 66 -110 14 -25 30
-52 37 -60 6 -8 18 -28 26 -45 8 -16 18 -32 21 -35 6 -5 22 -32 79 -130 11
-19 31 -53 45 -75 13 -22 40 -67 60 -100 20 -33 40 -67 45 -75 48 -76 170
-282 170 -286 0 -3 15 -29 33 -57 71 -110 87 -137 87 -141 0 -3 13 -24 29 -48
16 -24 37 -59 48 -78 11 -19 29 -52 42 -72 l22 -37 944 0 c885 0 944 1 938 17
-4 9 -11 22 -15 27 -5 6 -41 62 -80 125 -39 63 -109 176 -156 250 -47 74 -92
146 -99 160 -8 14 -26 44 -41 67 -27 41 -112 180 -135 218 -7 11 -15 22 -18
25 -3 3 -21 31 -40 62 -40 68 -133 216 -195 313 -25 39 -47 78 -51 88 -3 9 -9
17 -13 17 -4 0 -10 8 -14 18 -3 9 -53 91 -110 182 -58 91 -124 197 -147 235
-23 39 -46 72 -51 73 -4 2 -8 8 -8 14 0 6 -13 30 -30 55 -17 24 -30 46 -30 49
0 5 -64 101 -80 121 -5 7 -10 14 -10 17 0 3 -48 82 -107 176 -60 94 -119 191
-134 216 -14 24 -32 52 -40 62 -8 9 -15 22 -17 27 -1 6 -9 18 -17 28 -8 9 -15
19 -15 22 0 3 -17 31 -37 62 -21 32 -40 63 -43 68 -8 17 -104 170 -110 175 -3
3 -11 16 -19 30 -8 14 -43 71 -78 128 -35 56 -63 105 -63 108 0 3 42 60 93
127 52 67 129 169 173 227 43 58 84 112 91 120 6 8 68 89 137 180 69 91 129
170 133 175 5 6 37 48 72 95 35 47 67 87 72 88 5 2 9 8 9 14 0 6 9 20 20 32
10 11 41 50 67 86 26 36 52 70 58 76 5 7 19 24 30 40 33 46 163 217 182 240
10 12 25 32 33 44 8 13 23 32 32 42 10 10 18 22 18 27 0 5 4 11 8 13 5 2 50
59 101 128 52 69 100 130 107 136 8 6 14 14 14 18 0 5 51 75 79 107 6 8 32 41
56 74 25 33 48 65 53 70 4 6 21 28 37 50 17 22 40 51 52 65 13 14 23 28 23 32
0 3 6 13 13 20 20 20 197 256 197 263 0 3 -413 5 -918 5 l-918 0 -20 -23 c-10
-13 -30 -39 -44 -58 -13 -19 -28 -38 -32 -44 -5 -5 -47 -62 -94 -125 -46 -63
-91 -124 -100 -135 -19 -25 -183 -244 -206 -276 -36 -50 -99 -135 -118 -159
-41 -51 -330 -442 -330 -446 0 -2 -8 -13 -17 -23 -22 -24 -24 -27 -93 -121
-30 -41 -58 -76 -62 -78 -5 -2 -8 -8 -8 -13 0 -5 -8 -18 -17 -30 -10 -11 -28
-33 -40 -47 -13 -15 -23 -30 -23 -34 0 -4 -6 -13 -13 -20 -6 -7 -84 -110 -172
-228 -88 -118 -163 -216 -167 -218 -5 -2 -8 -10 -8 -17 0 -7 -4 -15 -8 -17 -5
-1 -49 -57 -98 -123 -85 -115 -91 -120 -126 -121 -29 -2 -38 2 -39 15 -1 9 -2
538 -3 1176 l-1 1160 -792 3 -793 2 0 -2914z"/>
<path d="M6837 2464 c-1 -1 -27 -5 -59 -8 -289 -33 -562 -251 -654 -521 -42
-126 -51 -316 -20 -449 15 -62 23 -85 59 -166 22 -48 85 -135 138 -191 116
-119 256 -199 414 -235 60 -13 271 -12 326 2 202 52 356 151 470 302 24 31 47
59 50 62 4 3 23 41 44 85 87 187 96 422 23 605 -26 64 -82 163 -110 194 -62
68 -117 122 -148 145 -19 14 -41 32 -48 39 -20 18 -192 99 -227 106 -103 22
-248 38 -258 30z"/>
</g>
</svg>
