<?xml version="1.0" encoding="UTF-8"?>
<svg width="61px" height="60px" viewBox="0 0 61 60" version="1.1" xmlns="http://www.w3.org/2000/svg" xmlns:xlink="http://www.w3.org/1999/xlink">
    <!-- Generator: Sketch 59.1 (86144) - https://sketch.com -->
    <title>github-1</title>
    <desc>Created with Sketch.</desc>
    <g id="Welcome" stroke="none" stroke-width="1" fill="none" fill-rule="evenodd">
        <g id="Desktop-HD" transform="translate(-559.000000, -7861.000000)" fill="#FFFFFF" fill-rule="nonzero">
            <g id="github-1" transform="translate(559.000000, 7861.000000)">
                <path d="M30.4535637,3.7658765e-13 C13.6276458,3.7658765e-13 9.9475983e-14,13.6276458 9.9475983e-14,30.4535637 C9.9475983e-14,44.7654428 9.82030238,56.6436285 23.0695464,59.9922246 C22.9166307,59.6112311 22.8414687,59.0773218 22.8414687,58.5460043 L22.8414687,53.3676026 L19.0341253,53.3676026 C16.9788337,53.3676026 15.0738661,52.4552916 14.2367171,50.7784017 C13.2466523,48.9511879 13.0937365,46.1339093 10.5822894,44.3818575 C9.82030238,43.7727862 10.4293737,43.1637149 11.2665227,43.2388769 C12.8656587,43.6950324 14.1589633,44.762851 15.3771058,46.3593952 C16.5952484,47.9585313 17.1291577,48.3395248 19.412527,48.3395248 C20.4777538,48.3395248 22.1520518,48.2643629 23.6760259,48.0336933 C24.5131749,45.9006479 25.9593952,43.9982721 27.7114471,43.0859611 C17.5101512,41.8678186 12.637581,36.8423326 12.637581,29.9896328 C12.637581,27.0194384 13.9308855,24.2021598 16.0639309,21.7658747 C15.3796976,19.4047516 14.4647948,14.5321814 16.3697624,12.6298056 C20.9390929,12.6298056 23.6786177,15.6 24.362851,16.3593952 C26.6462203,15.5974082 29.1602592,15.1412527 31.7468683,15.1412527 C34.4112311,15.1412527 36.8475162,15.5974082 39.1308855,16.3593952 C39.8151188,15.5974082 42.5572354,12.6298056 47.1239741,12.6298056 C48.9511879,14.4570194 48.1140389,19.4047516 47.3520518,21.7658747 C49.4850972,24.1269978 50.7032397,27.0194384 50.7032397,29.9896328 C50.7032397,36.8423326 45.9058315,41.8678186 35.7822894,42.9330454 C38.599568,44.3792657 40.5796976,48.4898488 40.5796976,51.5352052 L40.5796976,58.4708423 C40.5796976,58.6989201 40.5045356,58.9269978 40.5045356,59.1550756 C52.3801296,55.0444924 60.9071274,43.7779698 60.9071274,30.4535637 C60.9071274,13.6276458 47.2794816,3.7658765e-13 30.4535637,3.7658765e-13 L30.4535637,3.7658765e-13 Z" id="Path"></path>
            </g>
        </g>
    </g>
</svg>