<?xml version="1.0" encoding="UTF-8"?>
<svg width="60px" height="60px" viewBox="0 0 60 60" version="1.1" xmlns="http://www.w3.org/2000/svg" xmlns:xlink="http://www.w3.org/1999/xlink">
    <!-- Generator: Sketch 59.1 (86144) - https://sketch.com -->
    <title>instagram-glyph-1</title>
    <desc>Created with Sketch.</desc>
    <g id="Welcome" stroke="none" stroke-width="1" fill="none" fill-rule="evenodd">
        <g id="Desktop-HD" transform="translate(-800.000000, -7861.000000)" fill="#FFFFFF" fill-rule="nonzero">
            <g id="instagram-glyph-1" transform="translate(800.000000, 7861.000000)">
                <path d="M20.0016155,30 C20.0016155,24.4773829 24.4773829,19.9991922 30,19.9991922 C35.5226171,19.9991922 40.0008078,24.4773829 40.0008078,30 C40.0008078,35.5226171 35.5226171,40.0008078 30,40.0008078 C24.4773829,40.0008078 20.0016155,35.5226171 20.0016155,30 M14.595315,30 C14.595315,38.5080775 21.4919225,45.404685 30,45.404685 C38.5080775,45.404685 45.404685,38.5080775 45.404685,30 C45.404685,21.4919225 38.5080775,14.595315 30,14.595315 C21.4919225,14.595315 14.595315,21.4919225 14.595315,30 M42.414378,13.9846527 C42.414378,15.9717286 44.0258481,17.585622 46.0153473,17.585622 C48.0024233,17.585622 49.6163166,15.9717286 49.6163166,13.9846527 C49.6163166,11.9975767 48.0048465,10.3861066 46.0153473,10.3861066 C44.0258481,10.3861066 42.414378,11.9975767 42.414378,13.9846527 M17.8788368,54.4192246 C14.953958,54.2859451 13.3642973,53.7988691 12.3077544,53.3869144 C10.9071082,52.8416801 9.90872375,52.1922456 8.85702746,51.1429725 C7.80775444,50.0936995 7.15589661,49.095315 6.61308562,47.6946688 C6.20113086,46.638126 5.71405493,45.0484653 5.58077544,42.1235864 C5.43537964,38.9612278 5.40630048,38.0113086 5.40630048,30 C5.40630048,21.9886914 5.43780291,21.0411955 5.58077544,17.8764136 C5.71405493,14.9515347 6.20355412,13.3642973 6.61308562,12.3053312 C7.15831987,10.904685 7.80775444,9.90630048 8.85702746,8.8546042 C9.90630048,7.80533118 10.904685,7.15347334 12.3077544,6.61066236 C13.3642973,6.19870759 14.953958,5.71163166 17.8788368,5.57835218 C21.0411955,5.43295638 21.9911147,5.40387722 30,5.40387722 C38.0113086,5.40387722 38.9588045,5.43537964 42.1235864,5.57835218 C45.0484653,5.71163166 46.6357027,6.20113086 47.6946688,6.61066236 C49.095315,7.15347334 50.0936995,7.80533118 51.1453958,8.8546042 C52.1946688,9.90387722 52.8441034,10.904685 53.3893376,12.3053312 C53.8012924,13.361874 54.2883683,14.9515347 54.4216478,17.8764136 C54.5670436,21.0411955 54.5961228,21.9886914 54.5961228,30 C54.5961228,38.0088853 54.5670436,38.9588045 54.4216478,42.1235864 C54.2883683,45.0484653 53.7988691,46.638126 53.3893376,47.6946688 C52.8441034,49.095315 52.1946688,50.0936995 51.1453958,51.1429725 C50.0961228,52.1922456 49.095315,52.8416801 47.6946688,53.3869144 C46.638126,53.7988691 45.0484653,54.2859451 42.1235864,54.4192246 C38.9612278,54.5646204 38.0113086,54.5936995 30,54.5936995 C21.9911147,54.5936995 21.0411955,54.5646204 17.8788368,54.4192246 M17.631664,0.18174475 C14.4378029,0.327140549 12.2568659,0.833602585 10.3497577,1.57512116 C8.37722132,2.34087237 6.70516963,3.36833603 5.0355412,5.0355412 C3.36833603,6.70274637 2.34087237,8.37479806 1.57512116,10.3497577 C0.833602585,12.2568659 0.327140549,14.4378029 0.18174475,17.631664 C0.0339256866,20.8303716 0,21.8529887 0,30 C0,38.1470113 0.0339256866,39.1696284 0.18174475,42.368336 C0.327140549,45.5621971 0.833602585,47.7431341 1.57512116,49.6502423 C2.34087237,51.6227787 3.36591276,53.2972536 5.0355412,54.9644588 C6.70274637,56.631664 8.37479806,57.6567044 10.3497577,58.4248788 C12.2592892,59.1663974 14.4378029,59.6728595 17.631664,59.8182553 C20.8327948,59.9636511 21.8529887,60 30,60 C38.1494346,60 39.1696284,59.9660743 42.368336,59.8182553 C45.5621971,59.6728595 47.7431341,59.1663974 49.6502423,58.4248788 C51.6227787,57.6567044 53.2948304,56.631664 54.9644588,54.9644588 C56.631664,53.2972536 57.6567044,51.6227787 58.4248788,49.6502423 C59.1663974,47.7431341 59.6752827,45.5621971 59.8182553,42.368336 C59.9636511,39.1672052 59.9975767,38.1470113 59.9975767,30 C59.9975767,21.8529887 59.9636511,20.8303716 59.8182553,17.631664 C59.6728595,14.4378029 59.1663974,12.2568659 58.4248788,10.3497577 C57.6567044,8.37722132 56.631664,6.70516963 54.9644588,5.0355412 C53.2972536,3.36833603 51.6227787,2.34087237 49.6526656,1.57512116 C47.7431341,0.833602585 45.5621971,0.324717286 42.3707593,0.18174475 C39.1720517,0.0363489499 38.1494346,0 30.0024233,0 C21.8529887,0 20.8327948,0.0339256866 17.631664,0.18174475" id="Shape"></path>
            </g>
        </g>
    </g>
</svg>