<?xml version="1.0" encoding="UTF-8"?>
<svg width="60px" height="60px" viewBox="0 0 60 60" version="1.1" xmlns="http://www.w3.org/2000/svg" xmlns:xlink="http://www.w3.org/1999/xlink">
    <!-- Generator: Sketch 59.1 (86144) - https://sketch.com -->
    <title>linkedin-icon-2</title>
    <desc>Created with Sketch.</desc>
    <g id="Welcome" stroke="none" stroke-width="1" fill="none" fill-rule="evenodd">
        <g id="Desktop-HD" transform="translate(-920.000000, -7861.000000)" fill="#FFFFFF" fill-rule="nonzero">
            <g id="linkedin-icon-2" transform="translate(920.000000, 7861.000000)">
                <path d="M55.565625,0 C58.0148437,0 60,1.925625 60,4.29796875 L60,55.7027344 C60,58.0757812 58.0148437,60 55.565625,60 L4.434375,60 C1.98632812,60 0,58.0760156 0,55.7034375 L0,4.29726563 C0,1.925625 1.98609375,0 4.434375,0 L55.565625,0 Z M18.2334375,23.1998438 L9.255,23.1998438 L9.255,50.2120313 L18.2334375,50.2120313 L18.2334375,23.1998438 Z M40.2733594,22.5665625 C35.5457757,22.5665625 33.4063388,25.1459988 32.2078368,26.983848 L32.181,27.023 L32.1815625,23.2007813 L23.2035937,23.2007813 C23.3207812,25.7348438 23.2028906,50.2129688 23.2028906,50.2129688 L32.1808594,50.2120313 L32.1808594,35.1288281 C32.1808594,34.3225781 32.2394531,33.5142188 32.4766406,32.9383594 C33.1253906,31.3246875 34.6026562,29.6542969 37.0835156,29.6542969 C40.3314844,29.6542969 41.6315625,32.1311719 41.6315625,35.7628125 L41.6315625,50.2120313 L50.6090625,50.2120313 L50.6090625,34.7240625 C50.6090625,26.4274219 46.1803125,22.5665625 40.2733594,22.5665625 Z M32.181,27.023 L32.1815625,27.1169531 L32.1217969,27.1169531 L32.1217969,27.1169531 L32.181,27.023 Z M13.805625,10.1784375 C10.7327344,10.1784375 8.72578125,12.1947656 8.72578125,14.8457813 C8.72578125,17.4379688 10.6739062,19.5121875 13.6872656,19.5121875 L13.7460937,19.5124219 C16.8764062,19.5124219 18.8252344,17.4382031 18.8252344,14.8460156 C18.7666406,12.1947656 16.8764062,10.1784375 13.805625,10.1784375 Z" id="Combined-Shape"></path>
            </g>
        </g>
    </g>
</svg>