<?xml version="1.0" encoding="UTF-8"?>
<svg width="48px" height="37px" viewBox="0 0 48 37" version="1.1" xmlns="http://www.w3.org/2000/svg" xmlns:xlink="http://www.w3.org/1999/xlink">
    <!-- Generator: Sketch 59.1 (86144) - https://sketch.com -->
    <title>K</title>
    <desc>Created with Sketch.</desc>
    <g id="Welcome" stroke="none" stroke-width="1" fill="none" fill-rule="evenodd">
        <g id="Desktop-HD" transform="translate(-80.000000, -80.000000)" fill="#FFFFFF" fill-rule="nonzero">
            <path d="M80,116.430769 L80,80 L89.9069491,80 L89.9069491,94.7288462 L90.4058602,94.7288462 L101.381905,80 L112.928133,80 L100.597901,96.2230769 L113.213225,116.430769 L101.381905,116.430769 L93.1855078,102.769231 L89.9069491,107.038462 L89.9069491,116.430769 L80,116.430769 Z M123.010889,117 C121.632937,117 120.453974,116.516752 119.473966,115.55024 C118.493957,114.583729 118.009899,113.406738 118.021778,112.019231 C118.009899,110.667301 118.493957,109.511062 119.473966,108.550481 C120.453974,107.589899 121.632937,107.109615 123.010889,107.109615 C124.317567,107.109615 125.472773,107.589899 126.476539,108.550481 C127.480306,109.511062 127.988121,110.667301 128,112.019231 C127.988121,113.406738 127.480306,114.583729 126.476539,115.55024 C125.472773,116.516752 124.317567,117 123.010889,117 Z" id="K."></path>
        </g>
    </g>
</svg>