<?xml version="1.0" encoding="UTF-8"?>
<svg width="48px" height="37px" viewBox="0 0 48 37" version="1.1" xmlns="http://www.w3.org/2000/svg" xmlns:xlink="http://www.w3.org/1999/xlink">
    <!-- Generator: Sketch 59.1 (86144) - https://sketch.com -->
    <title>K</title>
    <desc>Created with Sketch.</desc>
    <g id="Page-1" stroke="none" stroke-width="1" fill="none" fill-rule="evenodd">
        <g id="logo" fill="#0D0D11" fill-rule="nonzero">
            <path d="M0,36.430769 L0,0 L9.9069491,0 L9.9069491,14.7288462 L10.4058602,14.7288462 L21.381905,0 L32.928133,0 L20.597901,16.2230769 L33.213225,36.430769 L21.381905,36.430769 L13.1855078,22.769231 L9.9069491,27.038462 L9.9069491,36.430769 L0,36.430769 Z M43.010889,37 C41.632937,37 40.453974,36.516752 39.473966,35.55024 C38.493957,34.583729 38.009899,33.406738 38.021778,32.019231 C38.009899,30.667301 38.493957,29.511062 39.473966,28.550481 C40.453974,27.589899 41.632937,27.109615 43.010889,27.109615 C44.317567,27.109615 45.472773,27.589899 46.476539,28.550481 C47.480306,29.511062 47.988121,30.667301 48,32.019231 C47.988121,33.406738 47.480306,34.583729 46.476539,35.55024 C45.472773,36.516752 44.317567,37 43.010889,37 Z" id="K."></path>
        </g>
    </g>
</svg>