<?xml version="1.0" encoding="UTF-8"?>
<svg width="60px" height="60px" viewBox="0 0 60 60" version="1.1" xmlns="http://www.w3.org/2000/svg" xmlns:xlink="http://www.w3.org/1999/xlink">
    <!-- Generator: Sketch 59.1 (86144) - https://sketch.com -->
    <title>twitter-3</title>
    <desc>Created with Sketch.</desc>
    <g id="Welcome" stroke="none" stroke-width="1" fill="none" fill-rule="evenodd">
        <g id="Desktop-HD" transform="translate(-680.000000, -7861.000000)" fill="#FFFFFF" fill-rule="nonzero">
            <g id="twitter-3" transform="translate(680.000000, 7861.000000)">
                <path d="M30.0092255,0.0046229386 C46.5711432,0.0046229386 59.9972303,13.43071 59.9972303,29.9926277 C59.9972303,46.5545455 46.5711432,59.9806325 30.0092255,59.9806325 C13.4473078,59.9806325 0.0212207138,46.5545455 0.0212207138,29.9926277 C0.0212207138,13.43071 13.4473078,0.0046229386 30.0092255,0.0046229386 Z M37.4056218,14.3664843 C33.0501823,14.3664843 29.517911,17.89733 29.517911,22.2553152 C29.517911,22.8727932 29.5874587,23.4752008 29.7211574,24.0535772 C23.1646289,23.7240656 17.3518436,20.5834203 13.46104,15.8112035 C12.7816513,16.9767136 12.3927746,18.3318252 12.3927746,19.7776645 C12.3927746,22.5142608 13.785664,24.9287789 15.9021349,26.3431537 C14.6492192,26.3043285 13.4238007,25.96614 12.3283182,25.356859 L12.3283182,25.4565474 C12.3283182,29.2791271 15.0471967,32.4665108 18.6563473,33.1914161 C17.9933527,33.3730752 17.2975699,33.4679778 16.577756,33.4679778 C16.0688254,33.4679778 15.5750671,33.4198137 15.0927133,33.329086 C16.0966242,36.4621961 19.0100938,38.7428119 22.4612091,38.8072683 C19.7612704,40.9237392 16.3592356,42.1853737 12.664245,42.1853737 C12.0278272,42.1853737 11.3988428,42.1473923 10.7813649,42.0729569 C14.2731091,44.3119255 18.4189889,45.6189748 22.8742187,45.6189748 C37.3841363,45.6189748 45.3197057,33.5981125 45.3197057,23.1734878 C45.3197057,22.8312478 45.3121705,22.4915535 45.2956746,22.153081 C46.841779,21.034777 48.1764118,19.6501131 49.2370862,18.0639187 C47.8226095,18.6915794 46.303353,19.1158918 44.7059954,19.3066135 C46.3362431,18.3303996 47.5851493,16.7834462 48.1748285,14.9423151 C46.6262258,15.8620956 44.9314194,16.5096205 43.1640315,16.8567615 C41.7257274,15.3236566 39.6747311,14.3664843 37.4056218,14.3664843 Z" id="Combined-Shape"></path>
            </g>
        </g>
    </g>
</svg>